<svg width="143" height="251" viewBox="0 0 143 251" fill="none" xmlns="http://www.w3.org/2000/svg">
<path d="M40.4598 69.5C40.4598 45.5 17.1265 11.5 5.45979 -2.5L-54.04 -25C-64.7068 15.1667 -87.4402 98.3 -93.04 109.5C-100.04 123.5 -86.0402 189 -86.0402 210C-86.0402 231 -89.0402 287.5 -86.0402 297.5C-83.0402 307.5 -28.0402 324.5 -20.0402 324.5H74.4598C80.4598 324.5 126.46 292.5 127.46 287.5C128.46 282.5 152.96 259 136.96 243C120.96 227 33.4598 224 22.4598 189C11.4598 154 40.4598 99.5 40.4598 69.5Z" fill="#292929" fill-opacity="0.34"/>
</svg>
