<svg xmlns="http://www.w3.org/2000/svg" version="1.1" xmlns:xlink="http://www.w3.org/1999/xlink" xmlns:svgjs="http://svgjs.dev/svgjs" viewBox="0 0 800 800" opacity="1" width="800" height="800"><g stroke-width="3.5" stroke="hsla(261, 2%, 47%, 1.00)" fill="none"><circle r="4.289473684210526" cx="0" cy="0" fill="hsla(261, 2%, 47%, 1.00)" stroke="none"></circle><circle r="4.289473684210526" cx="44.44444444444444" cy="0" fill="hsla(261, 2%, 47%, 1.00)" stroke="none"></circle><circle r="4.289473684210526" cx="88.88888888888889" cy="0" fill="hsla(261, 2%, 47%, 1.00)" stroke="none"></circle><circle r="4.289473684210526" cx="133.33333333333331" cy="0" fill="hsla(261, 2%, 47%, 1.00)" stroke="none"></circle><circle r="4.289473684210526" cx="177.77777777777777" cy="0" fill="hsla(261, 2%, 47%, 1.00)" stroke="none"></circle><circle r="4.289473684210526" cx="222.22222222222223" cy="0" fill="hsla(261, 2%, 47%, 1.00)" stroke="none"></circle><circle r="4.289473684210526" cx="266.6666666666667" cy="0" fill="hsla(261, 2%, 47%, 1.00)" stroke="none"></circle><circle r="4.289473684210526" cx="311.11111111111114" cy="0" fill="hsla(261, 2%, 47%, 1.00)" stroke="none"></circle><circle r="4.289473684210526" cx="355.5555555555556" cy="0" fill="hsla(261, 2%, 47%, 1.00)" stroke="none"></circle><circle r="4.289473684210526" cx="400.00000000000006" cy="0" fill="hsla(261, 2%, 47%, 1.00)" stroke="none"></circle><circle r="4.289473684210526" cx="444.4444444444445" cy="0" fill="hsla(261, 2%, 47%, 1.00)" stroke="none"></circle><circle r="4.289473684210526" cx="488.88888888888897" cy="0" fill="hsla(261, 2%, 47%, 1.00)" stroke="none"></circle><circle r="4.289473684210526" cx="533.3333333333334" cy="0" fill="hsla(261, 2%, 47%, 1.00)" stroke="none"></circle><circle r="4.289473684210526" cx="577.7777777777778" cy="0" fill="hsla(261, 2%, 47%, 1.00)" stroke="none"></circle><circle r="4.289473684210526" cx="622.2222222222223" cy="0" fill="hsla(261, 2%, 47%, 1.00)" stroke="none"></circle><circle r="4.289473684210526" cx="666.6666666666667" cy="0" fill="hsla(261, 2%, 47%, 1.00)" stroke="none"></circle><circle r="4.289473684210526" cx="711.1111111111112" cy="0" fill="hsla(261, 2%, 47%, 1.00)" stroke="none"></circle><circle r="4.289473684210526" cx="755.5555555555557" cy="0" fill="hsla(261, 2%, 47%, 1.00)" stroke="none"></circle><circle r="4.289473684210526" cx="800.0000000000001" cy="0" fill="hsla(261, 2%, 47%, 1.00)" stroke="none"></circle><circle r="4.289473684210526" cx="0" cy="72.72727272727273" fill="hsla(261, 2%, 47%, 1.00)" stroke="none"></circle><circle r="4.289473684210526" cx="44.44444444444444" cy="72.72727272727273" fill="hsla(261, 2%, 47%, 1.00)" stroke="none"></circle><circle r="4.289473684210526" cx="88.88888888888889" cy="72.72727272727273" fill="hsla(261, 2%, 47%, 1.00)" stroke="none"></circle><circle r="4.289473684210526" cx="133.33333333333331" cy="72.72727272727273" fill="hsla(261, 2%, 47%, 1.00)" stroke="none"></circle><circle r="4.289473684210526" cx="177.77777777777777" cy="72.72727272727273" fill="hsla(261, 2%, 47%, 1.00)" stroke="none"></circle><circle r="4.289473684210526" cx="222.22222222222223" cy="72.72727272727273" fill="hsla(261, 2%, 47%, 1.00)" stroke="none"></circle><circle r="4.289473684210526" cx="266.6666666666667" cy="72.72727272727273" fill="hsla(261, 2%, 47%, 1.00)" stroke="none"></circle><circle r="4.289473684210526" cx="311.11111111111114" cy="72.72727272727273" fill="hsla(261, 2%, 47%, 1.00)" stroke="none"></circle><circle r="4.289473684210526" cx="355.5555555555556" cy="72.72727272727273" fill="hsla(261, 2%, 47%, 1.00)" stroke="none"></circle><circle r="4.289473684210526" cx="400.00000000000006" cy="72.72727272727273" fill="hsla(261, 2%, 47%, 1.00)" stroke="none"></circle><circle r="4.289473684210526" cx="444.4444444444445" cy="72.72727272727273" fill="hsla(261, 2%, 47%, 1.00)" stroke="none"></circle><circle r="4.289473684210526" cx="488.88888888888897" cy="72.72727272727273" fill="hsla(261, 2%, 47%, 1.00)" stroke="none"></circle><circle r="4.289473684210526" cx="533.3333333333334" cy="72.72727272727273" fill="hsla(261, 2%, 47%, 1.00)" stroke="none"></circle><circle r="4.289473684210526" cx="577.7777777777778" cy="72.72727272727273" fill="hsla(261, 2%, 47%, 1.00)" stroke="none"></circle><circle r="4.289473684210526" cx="622.2222222222223" cy="72.72727272727273" fill="hsla(261, 2%, 47%, 1.00)" stroke="none"></circle><circle r="4.289473684210526" cx="666.6666666666667" cy="72.72727272727273" fill="hsla(261, 2%, 47%, 1.00)" stroke="none"></circle><circle r="4.289473684210526" cx="711.1111111111112" cy="72.72727272727273" fill="hsla(261, 2%, 47%, 1.00)" stroke="none"></circle><circle r="4.289473684210526" cx="755.5555555555557" cy="72.72727272727273" fill="hsla(261, 2%, 47%, 1.00)" stroke="none"></circle><circle r="4.289473684210526" cx="800.0000000000001" cy="72.72727272727273" fill="hsla(261, 2%, 47%, 1.00)" stroke="none"></circle><circle r="4.289473684210526" cx="0" cy="145.45454545454547" fill="hsla(261, 2%, 47%, 1.00)" stroke="none"></circle><circle r="4.289473684210526" cx="44.44444444444444" cy="145.45454545454547" fill="hsla(261, 2%, 47%, 1.00)" stroke="none"></circle><circle r="4.289473684210526" cx="88.88888888888889" cy="145.45454545454547" fill="hsla(261, 2%, 47%, 1.00)" stroke="none"></circle><circle r="4.289473684210526" cx="133.33333333333331" cy="145.45454545454547" fill="hsla(261, 2%, 47%, 1.00)" stroke="none"></circle><circle r="4.289473684210526" cx="177.77777777777777" cy="145.45454545454547" fill="hsla(261, 2%, 47%, 1.00)" stroke="none"></circle><circle r="4.289473684210526" cx="222.22222222222223" cy="145.45454545454547" fill="hsla(261, 2%, 47%, 1.00)" stroke="none"></circle><circle r="4.289473684210526" cx="266.6666666666667" cy="145.45454545454547" fill="hsla(261, 2%, 47%, 1.00)" stroke="none"></circle><circle r="4.289473684210526" cx="311.11111111111114" cy="145.45454545454547" fill="hsla(261, 2%, 47%, 1.00)" stroke="none"></circle><circle r="4.289473684210526" cx="355.5555555555556" cy="145.45454545454547" fill="hsla(261, 2%, 47%, 1.00)" stroke="none"></circle><circle r="4.289473684210526" cx="400.00000000000006" cy="145.45454545454547" fill="hsla(261, 2%, 47%, 1.00)" stroke="none"></circle><circle r="4.289473684210526" cx="444.4444444444445" cy="145.45454545454547" fill="hsla(261, 2%, 47%, 1.00)" stroke="none"></circle><circle r="4.289473684210526" cx="488.88888888888897" cy="145.45454545454547" fill="hsla(261, 2%, 47%, 1.00)" stroke="none"></circle><circle r="4.289473684210526" cx="533.3333333333334" cy="145.45454545454547" fill="hsla(261, 2%, 47%, 1.00)" stroke="none"></circle><circle r="4.289473684210526" cx="577.7777777777778" cy="145.45454545454547" fill="hsla(261, 2%, 47%, 1.00)" stroke="none"></circle><circle r="4.289473684210526" cx="622.2222222222223" cy="145.45454545454547" fill="hsla(261, 2%, 47%, 1.00)" stroke="none"></circle><circle r="4.289473684210526" cx="666.6666666666667" cy="145.45454545454547" fill="hsla(261, 2%, 47%, 1.00)" stroke="none"></circle><circle r="4.289473684210526" cx="711.1111111111112" cy="145.45454545454547" fill="hsla(261, 2%, 47%, 1.00)" stroke="none"></circle><circle r="4.289473684210526" cx="755.5555555555557" cy="145.45454545454547" fill="hsla(261, 2%, 47%, 1.00)" stroke="none"></circle><circle r="4.289473684210526" cx="800.0000000000001" cy="145.45454545454547" fill="hsla(261, 2%, 47%, 1.00)" stroke="none"></circle><circle r="4.289473684210526" cx="0" cy="218.1818181818182" fill="hsla(261, 2%, 47%, 1.00)" stroke="none"></circle><circle r="4.289473684210526" cx="44.44444444444444" cy="218.1818181818182" fill="hsla(261, 2%, 47%, 1.00)" stroke="none"></circle><circle r="4.289473684210526" cx="88.88888888888889" cy="218.1818181818182" fill="hsla(261, 2%, 47%, 1.00)" stroke="none"></circle><circle r="4.289473684210526" cx="133.33333333333331" cy="218.1818181818182" fill="hsla(261, 2%, 47%, 1.00)" stroke="none"></circle><circle r="4.289473684210526" cx="177.77777777777777" cy="218.1818181818182" fill="hsla(261, 2%, 47%, 1.00)" stroke="none"></circle><circle r="4.289473684210526" cx="222.22222222222223" cy="218.1818181818182" fill="hsla(261, 2%, 47%, 1.00)" stroke="none"></circle><circle r="4.289473684210526" cx="266.6666666666667" cy="218.1818181818182" fill="hsla(261, 2%, 47%, 1.00)" stroke="none"></circle><circle r="4.289473684210526" cx="311.11111111111114" cy="218.1818181818182" fill="hsla(261, 2%, 47%, 1.00)" stroke="none"></circle><circle r="4.289473684210526" cx="355.5555555555556" cy="218.1818181818182" fill="hsla(261, 2%, 47%, 1.00)" stroke="none"></circle><circle r="4.289473684210526" cx="400.00000000000006" cy="218.1818181818182" fill="hsla(261, 2%, 47%, 1.00)" stroke="none"></circle><circle r="4.289473684210526" cx="444.4444444444445" cy="218.1818181818182" fill="hsla(261, 2%, 47%, 1.00)" stroke="none"></circle><circle r="4.289473684210526" cx="488.88888888888897" cy="218.1818181818182" fill="hsla(261, 2%, 47%, 1.00)" stroke="none"></circle><circle r="4.289473684210526" cx="533.3333333333334" cy="218.1818181818182" fill="hsla(261, 2%, 47%, 1.00)" stroke="none"></circle><circle r="4.289473684210526" cx="577.7777777777778" cy="218.1818181818182" fill="hsla(261, 2%, 47%, 1.00)" stroke="none"></circle><circle r="4.289473684210526" cx="622.2222222222223" cy="218.1818181818182" fill="hsla(261, 2%, 47%, 1.00)" stroke="none"></circle><circle r="4.289473684210526" cx="666.6666666666667" cy="218.1818181818182" fill="hsla(261, 2%, 47%, 1.00)" stroke="none"></circle><circle r="4.289473684210526" cx="711.1111111111112" cy="218.1818181818182" fill="hsla(261, 2%, 47%, 1.00)" stroke="none"></circle><circle r="4.289473684210526" cx="755.5555555555557" cy="218.1818181818182" fill="hsla(261, 2%, 47%, 1.00)" stroke="none"></circle><circle r="4.289473684210526" cx="800.0000000000001" cy="218.1818181818182" fill="hsla(261, 2%, 47%, 1.00)" stroke="none"></circle><circle r="4.289473684210526" cx="0" cy="290.90909090909093" fill="hsla(261, 2%, 47%, 1.00)" stroke="none"></circle><circle r="4.289473684210526" cx="44.44444444444444" cy="290.90909090909093" fill="hsla(261, 2%, 47%, 1.00)" stroke="none"></circle><circle r="4.289473684210526" cx="88.88888888888889" cy="290.90909090909093" fill="hsla(261, 2%, 47%, 1.00)" stroke="none"></circle><circle r="4.289473684210526" cx="133.33333333333331" cy="290.90909090909093" fill="hsla(261, 2%, 47%, 1.00)" stroke="none"></circle><circle r="4.289473684210526" cx="177.77777777777777" cy="290.90909090909093" fill="hsla(261, 2%, 47%, 1.00)" stroke="none"></circle><circle r="4.289473684210526" cx="222.22222222222223" cy="290.90909090909093" fill="hsla(261, 2%, 47%, 1.00)" stroke="none"></circle><circle r="4.289473684210526" cx="266.6666666666667" cy="290.90909090909093" fill="hsla(261, 2%, 47%, 1.00)" stroke="none"></circle><circle r="4.289473684210526" cx="311.11111111111114" cy="290.90909090909093" fill="hsla(261, 2%, 47%, 1.00)" stroke="none"></circle><circle r="4.289473684210526" cx="355.5555555555556" cy="290.90909090909093" fill="hsla(261, 2%, 47%, 1.00)" stroke="none"></circle><circle r="4.289473684210526" cx="400.00000000000006" cy="290.90909090909093" fill="hsla(261, 2%, 47%, 1.00)" stroke="none"></circle><circle r="4.289473684210526" cx="444.4444444444445" cy="290.90909090909093" fill="hsla(261, 2%, 47%, 1.00)" stroke="none"></circle><circle r="4.289473684210526" cx="488.88888888888897" cy="290.90909090909093" fill="hsla(261, 2%, 47%, 1.00)" stroke="none"></circle><circle r="4.289473684210526" cx="533.3333333333334" cy="290.90909090909093" fill="hsla(261, 2%, 47%, 1.00)" stroke="none"></circle><circle r="4.289473684210526" cx="577.7777777777778" cy="290.90909090909093" fill="hsla(261, 2%, 47%, 1.00)" stroke="none"></circle><circle r="4.289473684210526" cx="622.2222222222223" cy="290.90909090909093" fill="hsla(261, 2%, 47%, 1.00)" stroke="none"></circle><circle r="4.289473684210526" cx="666.6666666666667" cy="290.90909090909093" fill="hsla(261, 2%, 47%, 1.00)" stroke="none"></circle><circle r="4.289473684210526" cx="711.1111111111112" cy="290.90909090909093" fill="hsla(261, 2%, 47%, 1.00)" stroke="none"></circle><circle r="4.289473684210526" cx="755.5555555555557" cy="290.90909090909093" fill="hsla(261, 2%, 47%, 1.00)" stroke="none"></circle><circle r="4.289473684210526" cx="800.0000000000001" cy="290.90909090909093" fill="hsla(261, 2%, 47%, 1.00)" stroke="none"></circle><circle r="4.289473684210526" cx="0" cy="363.6363636363637" fill="hsla(261, 2%, 47%, 1.00)" stroke="none"></circle><circle r="4.289473684210526" cx="44.44444444444444" cy="363.6363636363637" fill="hsla(261, 2%, 47%, 1.00)" stroke="none"></circle><circle r="4.289473684210526" cx="88.88888888888889" cy="363.6363636363637" fill="hsla(261, 2%, 47%, 1.00)" stroke="none"></circle><circle r="4.289473684210526" cx="133.33333333333331" cy="363.6363636363637" fill="hsla(261, 2%, 47%, 1.00)" stroke="none"></circle><circle r="4.289473684210526" cx="177.77777777777777" cy="363.6363636363637" fill="hsla(261, 2%, 47%, 1.00)" stroke="none"></circle><circle r="4.289473684210526" cx="222.22222222222223" cy="363.6363636363637" fill="hsla(261, 2%, 47%, 1.00)" stroke="none"></circle><circle r="4.289473684210526" cx="266.6666666666667" cy="363.6363636363637" fill="hsla(261, 2%, 47%, 1.00)" stroke="none"></circle><circle r="4.289473684210526" cx="311.11111111111114" cy="363.6363636363637" fill="hsla(261, 2%, 47%, 1.00)" stroke="none"></circle><circle r="4.289473684210526" cx="355.5555555555556" cy="363.6363636363637" fill="hsla(261, 2%, 47%, 1.00)" stroke="none"></circle><circle r="4.289473684210526" cx="400.00000000000006" cy="363.6363636363637" fill="hsla(261, 2%, 47%, 1.00)" stroke="none"></circle><circle r="4.289473684210526" cx="444.4444444444445" cy="363.6363636363637" fill="hsla(261, 2%, 47%, 1.00)" stroke="none"></circle><circle r="4.289473684210526" cx="488.88888888888897" cy="363.6363636363637" fill="hsla(261, 2%, 47%, 1.00)" stroke="none"></circle><circle r="4.289473684210526" cx="533.3333333333334" cy="363.6363636363637" fill="hsla(261, 2%, 47%, 1.00)" stroke="none"></circle><circle r="4.289473684210526" cx="577.7777777777778" cy="363.6363636363637" fill="hsla(261, 2%, 47%, 1.00)" stroke="none"></circle><circle r="4.289473684210526" cx="622.2222222222223" cy="363.6363636363637" fill="hsla(261, 2%, 47%, 1.00)" stroke="none"></circle><circle r="4.289473684210526" cx="666.6666666666667" cy="363.6363636363637" fill="hsla(261, 2%, 47%, 1.00)" stroke="none"></circle><circle r="4.289473684210526" cx="711.1111111111112" cy="363.6363636363637" fill="hsla(261, 2%, 47%, 1.00)" stroke="none"></circle><circle r="4.289473684210526" cx="755.5555555555557" cy="363.6363636363637" fill="hsla(261, 2%, 47%, 1.00)" stroke="none"></circle><circle r="4.289473684210526" cx="800.0000000000001" cy="363.6363636363637" fill="hsla(261, 2%, 47%, 1.00)" stroke="none"></circle><circle r="4.289473684210526" cx="0" cy="436.36363636363643" fill="hsla(261, 2%, 47%, 1.00)" stroke="none"></circle><circle r="4.289473684210526" cx="44.44444444444444" cy="436.36363636363643" fill="hsla(261, 2%, 47%, 1.00)" stroke="none"></circle><circle r="4.289473684210526" cx="88.88888888888889" cy="436.36363636363643" fill="hsla(261, 2%, 47%, 1.00)" stroke="none"></circle><circle r="4.289473684210526" cx="133.33333333333331" cy="436.36363636363643" fill="hsla(261, 2%, 47%, 1.00)" stroke="none"></circle><circle r="4.289473684210526" cx="177.77777777777777" cy="436.36363636363643" fill="hsla(261, 2%, 47%, 1.00)" stroke="none"></circle><circle r="4.289473684210526" cx="222.22222222222223" cy="436.36363636363643" fill="hsla(261, 2%, 47%, 1.00)" stroke="none"></circle><circle r="4.289473684210526" cx="266.6666666666667" cy="436.36363636363643" fill="hsla(261, 2%, 47%, 1.00)" stroke="none"></circle><circle r="4.289473684210526" cx="311.11111111111114" cy="436.36363636363643" fill="hsla(261, 2%, 47%, 1.00)" stroke="none"></circle><circle r="4.289473684210526" cx="355.5555555555556" cy="436.36363636363643" fill="hsla(261, 2%, 47%, 1.00)" stroke="none"></circle><circle r="4.289473684210526" cx="400.00000000000006" cy="436.36363636363643" fill="hsla(261, 2%, 47%, 1.00)" stroke="none"></circle><circle r="4.289473684210526" cx="444.4444444444445" cy="436.36363636363643" fill="hsla(261, 2%, 47%, 1.00)" stroke="none"></circle><circle r="4.289473684210526" cx="488.88888888888897" cy="436.36363636363643" fill="hsla(261, 2%, 47%, 1.00)" stroke="none"></circle><circle r="4.289473684210526" cx="533.3333333333334" cy="436.36363636363643" fill="hsla(261, 2%, 47%, 1.00)" stroke="none"></circle><circle r="4.289473684210526" cx="577.7777777777778" cy="436.36363636363643" fill="hsla(261, 2%, 47%, 1.00)" stroke="none"></circle><circle r="4.289473684210526" cx="622.2222222222223" cy="436.36363636363643" fill="hsla(261, 2%, 47%, 1.00)" stroke="none"></circle><circle r="4.289473684210526" cx="666.6666666666667" cy="436.36363636363643" fill="hsla(261, 2%, 47%, 1.00)" stroke="none"></circle><circle r="4.289473684210526" cx="711.1111111111112" cy="436.36363636363643" fill="hsla(261, 2%, 47%, 1.00)" stroke="none"></circle><circle r="4.289473684210526" cx="755.5555555555557" cy="436.36363636363643" fill="hsla(261, 2%, 47%, 1.00)" stroke="none"></circle><circle r="4.289473684210526" cx="800.0000000000001" cy="436.36363636363643" fill="hsla(261, 2%, 47%, 1.00)" stroke="none"></circle><circle r="4.289473684210526" cx="0" cy="509.0909090909092" fill="hsla(261, 2%, 47%, 1.00)" stroke="none"></circle><circle r="4.289473684210526" cx="44.44444444444444" cy="509.0909090909092" fill="hsla(261, 2%, 47%, 1.00)" stroke="none"></circle><circle r="4.289473684210526" cx="88.88888888888889" cy="509.0909090909092" fill="hsla(261, 2%, 47%, 1.00)" stroke="none"></circle><circle r="4.289473684210526" cx="133.33333333333331" cy="509.0909090909092" fill="hsla(261, 2%, 47%, 1.00)" stroke="none"></circle><circle r="4.289473684210526" cx="177.77777777777777" cy="509.0909090909092" fill="hsla(261, 2%, 47%, 1.00)" stroke="none"></circle><circle r="4.289473684210526" cx="222.22222222222223" cy="509.0909090909092" fill="hsla(261, 2%, 47%, 1.00)" stroke="none"></circle><circle r="4.289473684210526" cx="266.6666666666667" cy="509.0909090909092" fill="hsla(261, 2%, 47%, 1.00)" stroke="none"></circle><circle r="4.289473684210526" cx="311.11111111111114" cy="509.0909090909092" fill="hsla(261, 2%, 47%, 1.00)" stroke="none"></circle><circle r="4.289473684210526" cx="355.5555555555556" cy="509.0909090909092" fill="hsla(261, 2%, 47%, 1.00)" stroke="none"></circle><circle r="4.289473684210526" cx="400.00000000000006" cy="509.0909090909092" fill="hsla(261, 2%, 47%, 1.00)" stroke="none"></circle><circle r="4.289473684210526" cx="444.4444444444445" cy="509.0909090909092" fill="hsla(261, 2%, 47%, 1.00)" stroke="none"></circle><circle r="4.289473684210526" cx="488.88888888888897" cy="509.0909090909092" fill="hsla(261, 2%, 47%, 1.00)" stroke="none"></circle><circle r="4.289473684210526" cx="533.3333333333334" cy="509.0909090909092" fill="hsla(261, 2%, 47%, 1.00)" stroke="none"></circle><circle r="4.289473684210526" cx="577.7777777777778" cy="509.0909090909092" fill="hsla(261, 2%, 47%, 1.00)" stroke="none"></circle><circle r="4.289473684210526" cx="622.2222222222223" cy="509.0909090909092" fill="hsla(261, 2%, 47%, 1.00)" stroke="none"></circle><circle r="4.289473684210526" cx="666.6666666666667" cy="509.0909090909092" fill="hsla(261, 2%, 47%, 1.00)" stroke="none"></circle><circle r="4.289473684210526" cx="711.1111111111112" cy="509.0909090909092" fill="hsla(261, 2%, 47%, 1.00)" stroke="none"></circle><circle r="4.289473684210526" cx="755.5555555555557" cy="509.0909090909092" fill="hsla(261, 2%, 47%, 1.00)" stroke="none"></circle><circle r="4.289473684210526" cx="800.0000000000001" cy="509.0909090909092" fill="hsla(261, 2%, 47%, 1.00)" stroke="none"></circle><circle r="4.289473684210526" cx="0" cy="581.8181818181819" fill="hsla(261, 2%, 47%, 1.00)" stroke="none"></circle><circle r="4.289473684210526" cx="44.44444444444444" cy="581.8181818181819" fill="hsla(261, 2%, 47%, 1.00)" stroke="none"></circle><circle r="4.289473684210526" cx="88.88888888888889" cy="581.8181818181819" fill="hsla(261, 2%, 47%, 1.00)" stroke="none"></circle><circle r="4.289473684210526" cx="133.33333333333331" cy="581.8181818181819" fill="hsla(261, 2%, 47%, 1.00)" stroke="none"></circle><circle r="4.289473684210526" cx="177.77777777777777" cy="581.8181818181819" fill="hsla(261, 2%, 47%, 1.00)" stroke="none"></circle><circle r="4.289473684210526" cx="222.22222222222223" cy="581.8181818181819" fill="hsla(261, 2%, 47%, 1.00)" stroke="none"></circle><circle r="4.289473684210526" cx="266.6666666666667" cy="581.8181818181819" fill="hsla(261, 2%, 47%, 1.00)" stroke="none"></circle><circle r="4.289473684210526" cx="311.11111111111114" cy="581.8181818181819" fill="hsla(261, 2%, 47%, 1.00)" stroke="none"></circle><circle r="4.289473684210526" cx="355.5555555555556" cy="581.8181818181819" fill="hsla(261, 2%, 47%, 1.00)" stroke="none"></circle><circle r="4.289473684210526" cx="400.00000000000006" cy="581.8181818181819" fill="hsla(261, 2%, 47%, 1.00)" stroke="none"></circle><circle r="4.289473684210526" cx="444.4444444444445" cy="581.8181818181819" fill="hsla(261, 2%, 47%, 1.00)" stroke="none"></circle><circle r="4.289473684210526" cx="488.88888888888897" cy="581.8181818181819" fill="hsla(261, 2%, 47%, 1.00)" stroke="none"></circle><circle r="4.289473684210526" cx="533.3333333333334" cy="581.8181818181819" fill="hsla(261, 2%, 47%, 1.00)" stroke="none"></circle><circle r="4.289473684210526" cx="577.7777777777778" cy="581.8181818181819" fill="hsla(261, 2%, 47%, 1.00)" stroke="none"></circle><circle r="4.289473684210526" cx="622.2222222222223" cy="581.8181818181819" fill="hsla(261, 2%, 47%, 1.00)" stroke="none"></circle><circle r="4.289473684210526" cx="666.6666666666667" cy="581.8181818181819" fill="hsla(261, 2%, 47%, 1.00)" stroke="none"></circle><circle r="4.289473684210526" cx="711.1111111111112" cy="581.8181818181819" fill="hsla(261, 2%, 47%, 1.00)" stroke="none"></circle><circle r="4.289473684210526" cx="755.5555555555557" cy="581.8181818181819" fill="hsla(261, 2%, 47%, 1.00)" stroke="none"></circle><circle r="4.289473684210526" cx="800.0000000000001" cy="581.8181818181819" fill="hsla(261, 2%, 47%, 1.00)" stroke="none"></circle><circle r="4.289473684210526" cx="0" cy="654.5454545454546" fill="hsla(261, 2%, 47%, 1.00)" stroke="none"></circle><circle r="4.289473684210526" cx="44.44444444444444" cy="654.5454545454546" fill="hsla(261, 2%, 47%, 1.00)" stroke="none"></circle><circle r="4.289473684210526" cx="88.88888888888889" cy="654.5454545454546" fill="hsla(261, 2%, 47%, 1.00)" stroke="none"></circle><circle r="4.289473684210526" cx="133.33333333333331" cy="654.5454545454546" fill="hsla(261, 2%, 47%, 1.00)" stroke="none"></circle><circle r="4.289473684210526" cx="177.77777777777777" cy="654.5454545454546" fill="hsla(261, 2%, 47%, 1.00)" stroke="none"></circle><circle r="4.289473684210526" cx="222.22222222222223" cy="654.5454545454546" fill="hsla(261, 2%, 47%, 1.00)" stroke="none"></circle><circle r="4.289473684210526" cx="266.6666666666667" cy="654.5454545454546" fill="hsla(261, 2%, 47%, 1.00)" stroke="none"></circle><circle r="4.289473684210526" cx="311.11111111111114" cy="654.5454545454546" fill="hsla(261, 2%, 47%, 1.00)" stroke="none"></circle><circle r="4.289473684210526" cx="355.5555555555556" cy="654.5454545454546" fill="hsla(261, 2%, 47%, 1.00)" stroke="none"></circle><circle r="4.289473684210526" cx="400.00000000000006" cy="654.5454545454546" fill="hsla(261, 2%, 47%, 1.00)" stroke="none"></circle><circle r="4.289473684210526" cx="444.4444444444445" cy="654.5454545454546" fill="hsla(261, 2%, 47%, 1.00)" stroke="none"></circle><circle r="4.289473684210526" cx="488.88888888888897" cy="654.5454545454546" fill="hsla(261, 2%, 47%, 1.00)" stroke="none"></circle><circle r="4.289473684210526" cx="533.3333333333334" cy="654.5454545454546" fill="hsla(261, 2%, 47%, 1.00)" stroke="none"></circle><circle r="4.289473684210526" cx="577.7777777777778" cy="654.5454545454546" fill="hsla(261, 2%, 47%, 1.00)" stroke="none"></circle><circle r="4.289473684210526" cx="622.2222222222223" cy="654.5454545454546" fill="hsla(261, 2%, 47%, 1.00)" stroke="none"></circle><circle r="4.289473684210526" cx="666.6666666666667" cy="654.5454545454546" fill="hsla(261, 2%, 47%, 1.00)" stroke="none"></circle><circle r="4.289473684210526" cx="711.1111111111112" cy="654.5454545454546" fill="hsla(261, 2%, 47%, 1.00)" stroke="none"></circle><circle r="4.289473684210526" cx="755.5555555555557" cy="654.5454545454546" fill="hsla(261, 2%, 47%, 1.00)" stroke="none"></circle><circle r="4.289473684210526" cx="800.0000000000001" cy="654.5454545454546" fill="hsla(261, 2%, 47%, 1.00)" stroke="none"></circle><circle r="4.289473684210526" cx="0" cy="727.2727272727274" fill="hsla(261, 2%, 47%, 1.00)" stroke="none"></circle><circle r="4.289473684210526" cx="44.44444444444444" cy="727.2727272727274" fill="hsla(261, 2%, 47%, 1.00)" stroke="none"></circle><circle r="4.289473684210526" cx="88.88888888888889" cy="727.2727272727274" fill="hsla(261, 2%, 47%, 1.00)" stroke="none"></circle><circle r="4.289473684210526" cx="133.33333333333331" cy="727.2727272727274" fill="hsla(261, 2%, 47%, 1.00)" stroke="none"></circle><circle r="4.289473684210526" cx="177.77777777777777" cy="727.2727272727274" fill="hsla(261, 2%, 47%, 1.00)" stroke="none"></circle><circle r="4.289473684210526" cx="222.22222222222223" cy="727.2727272727274" fill="hsla(261, 2%, 47%, 1.00)" stroke="none"></circle><circle r="4.289473684210526" cx="266.6666666666667" cy="727.2727272727274" fill="hsla(261, 2%, 47%, 1.00)" stroke="none"></circle><circle r="4.289473684210526" cx="311.11111111111114" cy="727.2727272727274" fill="hsla(261, 2%, 47%, 1.00)" stroke="none"></circle><circle r="4.289473684210526" cx="355.5555555555556" cy="727.2727272727274" fill="hsla(261, 2%, 47%, 1.00)" stroke="none"></circle><circle r="4.289473684210526" cx="400.00000000000006" cy="727.2727272727274" fill="hsla(261, 2%, 47%, 1.00)" stroke="none"></circle><circle r="4.289473684210526" cx="444.4444444444445" cy="727.2727272727274" fill="hsla(261, 2%, 47%, 1.00)" stroke="none"></circle><circle r="4.289473684210526" cx="488.88888888888897" cy="727.2727272727274" fill="hsla(261, 2%, 47%, 1.00)" stroke="none"></circle><circle r="4.289473684210526" cx="533.3333333333334" cy="727.2727272727274" fill="hsla(261, 2%, 47%, 1.00)" stroke="none"></circle><circle r="4.289473684210526" cx="577.7777777777778" cy="727.2727272727274" fill="hsla(261, 2%, 47%, 1.00)" stroke="none"></circle><circle r="4.289473684210526" cx="622.2222222222223" cy="727.2727272727274" fill="hsla(261, 2%, 47%, 1.00)" stroke="none"></circle><circle r="4.289473684210526" cx="666.6666666666667" cy="727.2727272727274" fill="hsla(261, 2%, 47%, 1.00)" stroke="none"></circle><circle r="4.289473684210526" cx="711.1111111111112" cy="727.2727272727274" fill="hsla(261, 2%, 47%, 1.00)" stroke="none"></circle><circle r="4.289473684210526" cx="755.5555555555557" cy="727.2727272727274" fill="hsla(261, 2%, 47%, 1.00)" stroke="none"></circle><circle r="4.289473684210526" cx="800.0000000000001" cy="727.2727272727274" fill="hsla(261, 2%, 47%, 1.00)" stroke="none"></circle><circle r="4.289473684210526" cx="0" cy="800.0000000000001" fill="hsla(261, 2%, 47%, 1.00)" stroke="none"></circle><circle r="4.289473684210526" cx="44.44444444444444" cy="800.0000000000001" fill="hsla(261, 2%, 47%, 1.00)" stroke="none"></circle><circle r="4.289473684210526" cx="88.88888888888889" cy="800.0000000000001" fill="hsla(261, 2%, 47%, 1.00)" stroke="none"></circle><circle r="4.289473684210526" cx="133.33333333333331" cy="800.0000000000001" fill="hsla(261, 2%, 47%, 1.00)" stroke="none"></circle><circle r="4.289473684210526" cx="177.77777777777777" cy="800.0000000000001" fill="hsla(261, 2%, 47%, 1.00)" stroke="none"></circle><circle r="4.289473684210526" cx="222.22222222222223" cy="800.0000000000001" fill="hsla(261, 2%, 47%, 1.00)" stroke="none"></circle><circle r="4.289473684210526" cx="266.6666666666667" cy="800.0000000000001" fill="hsla(261, 2%, 47%, 1.00)" stroke="none"></circle><circle r="4.289473684210526" cx="311.11111111111114" cy="800.0000000000001" fill="hsla(261, 2%, 47%, 1.00)" stroke="none"></circle><circle r="4.289473684210526" cx="355.5555555555556" cy="800.0000000000001" fill="hsla(261, 2%, 47%, 1.00)" stroke="none"></circle><circle r="4.289473684210526" cx="400.00000000000006" cy="800.0000000000001" fill="hsla(261, 2%, 47%, 1.00)" stroke="none"></circle><circle r="4.289473684210526" cx="444.4444444444445" cy="800.0000000000001" fill="hsla(261, 2%, 47%, 1.00)" stroke="none"></circle><circle r="4.289473684210526" cx="488.88888888888897" cy="800.0000000000001" fill="hsla(261, 2%, 47%, 1.00)" stroke="none"></circle><circle r="4.289473684210526" cx="533.3333333333334" cy="800.0000000000001" fill="hsla(261, 2%, 47%, 1.00)" stroke="none"></circle><circle r="4.289473684210526" cx="577.7777777777778" cy="800.0000000000001" fill="hsla(261, 2%, 47%, 1.00)" stroke="none"></circle><circle r="4.289473684210526" cx="622.2222222222223" cy="800.0000000000001" fill="hsla(261, 2%, 47%, 1.00)" stroke="none"></circle><circle r="4.289473684210526" cx="666.6666666666667" cy="800.0000000000001" fill="hsla(261, 2%, 47%, 1.00)" stroke="none"></circle><circle r="4.289473684210526" cx="711.1111111111112" cy="800.0000000000001" fill="hsla(261, 2%, 47%, 1.00)" stroke="none"></circle><circle r="4.289473684210526" cx="755.5555555555557" cy="800.0000000000001" fill="hsla(261, 2%, 47%, 1.00)" stroke="none"></circle><circle r="4.289473684210526" cx="800.0000000000001" cy="800.0000000000001" fill="hsla(261, 2%, 47%, 1.00)" stroke="none"></circle></g></svg>